<?xml version="1.0" encoding="UTF-8"?>
<!DOCTYPE svg PUBLIC "-//W3C//DTD SVG 1.1//EN" "http://www.w3.org/Graphics/SVG/1.1/DTD/svg11.dtd">
<!-- Creator: CorelDRAW -->
<svg xmlns="http://www.w3.org/2000/svg" xml:space="preserve" width="285px" height="285px" version="1.1" style="shape-rendering:geometricPrecision; text-rendering:geometricPrecision; image-rendering:optimizeQuality; fill-rule:evenodd; clip-rule:evenodd"
viewBox="0 0 255 255"
 xmlns:xlink="http://www.w3.org/1999/xlink"
 xmlns:xodm="http://www.corel.com/coreldraw/odm/2003">
 <defs>
  <style type="text/css">
   <![CDATA[
    .fil0 {fill:#00CA22}
    .fil1 {fill:white}
   ]]>
  </style>
 </defs>
 <g id="Слой_x0020_1">
  <metadata id="CorelCorpID_0Corel-Layer"/>
  <polygon class="fil0" points="0,0 255,0 255,255 0,255 "/>
  <path class="fil1" d="M176 58.4l0 -6.9c12.6,0 21.9,0 34.6,0l0 63.8 -22.7 0c1.1,5 1.7,10.2 1.7,15.6 0,40.1 -32.5,72.6 -72.6,72.6 -40.1,0 -72.6,-32.5 -72.6,-72.6 0,-39.7 31.9,-71.9 71.5,-72.5 20,0 40,0 60.1,0zm-59 34c7.4,0 14.3,2.1 20.2,5.7l38.8 0 0 -28.8c-20,0 -39.9,0 -59.8,0 -33.7,0.4 -60.9,27.8 -60.9,61.6 0,34.1 27.6,61.7 61.7,61.7 34,0 61.6,-27.6 61.6,-61.7 0,-8.1 -1.5,-15.8 -4.3,-22.9l-26.3 0c4.7,6.4 7.5,14.3 7.5,22.9 0,21.3 -17.2,38.6 -38.5,38.6 -21.3,0 -38.5,-17.3 -38.5,-38.6 0,-21.3 17.2,-38.5 38.5,-38.5zm27.7 44.2l-14.7 0 10.3 10.3c2.1,-3 3.6,-6.5 4.4,-10.3zm-12.1 17.9l-10.2 -10.2 0 14.4c3.7,-0.8 7.2,-2.2 10.2,-4.2zm-21 4.2l0 -14.5 -10.2 10.3c3,2 6.5,3.4 10.2,4.2zm-17.9 -11.8l10.3 -10.3 -14.7 0c0.8,3.8 2.3,7.3 4.4,10.3zm-4.5 -21l14.8 0 -10.6 -10.6c-2,3.2 -3.5,6.7 -4.2,10.6zm11.8 -18.3l10.6 10.7 0 -15.1c-3.9,0.7 -7.5,2.3 -10.6,4.4zm21.4 -4.4l0 15.1 10.6 -10.7c-3.1,-2.1 -6.7,-3.7 -10.6,-4.4zm18.1 12.1l-10.5 10.6 14.8 0c-0.7,-3.9 -2.2,-7.4 -4.3,-10.6zm45.2 -53.8l15.2 0 0 43.7 -15.2 0c0,-14.5 0,-29.1 0,-43.7z"/>
 </g>
</svg>
